<?xml version="1.0" encoding="UTF-8" standalone="no"?>
<?xml-stylesheet href="
  data:text/css,
  @import url(https://fonts.googleapis.com/css?family=Roboto:400,700);
  svg text {
    font-family: 'Roboto';
  }
  .node text {
    font-size: 12px;
  }
" type="text/css"?>
<!DOCTYPE svg PUBLIC "-//W3C//DTD SVG 1.1//EN"
 "http://www.w3.org/Graphics/SVG/1.1/DTD/svg11.dtd">
<!-- Generated by graphviz version 2.43.0 (0)
 -->
<!-- Title: G Pages: 1 -->
<svg width="829pt" height="984pt"
 viewBox="0.00 0.00 829.00 984.00" xmlns="http://www.w3.org/2000/svg" xmlns:xlink="http://www.w3.org/1999/xlink">
<g id="graph0" class="graph" transform="scale(1 1) rotate(0) translate(4 980)">
<title>G</title>
<polygon fill="white" stroke="transparent" points="-4,4 -4,-980 825,-980 825,4 -4,4"/>
<text text-anchor="start" x="322" y="-942.6" font-family="Times,serif" font-weight="bold" font-size="38.00">apply_fn</text>
<g id="clust2" class="cluster">
<title>cluster_140226253500720</title>
<path fill="#f0f5f5" stroke="#14234b" d="M20,-8C20,-8 801,-8 801,-8 807,-8 813,-14 813,-20 813,-20 813,-906 813,-906 813,-912 807,-918 801,-918 801,-918 20,-918 20,-918 14,-918 8,-912 8,-906 8,-906 8,-20 8,-20 8,-14 14,-8 20,-8"/>
<text text-anchor="start" x="324.5" y="-893.4" font-family="Times,serif" font-weight="bold" font-size="27.00">mlp_simple</text>
</g>
<g id="clust4" class="cluster">
<title>cluster_140226253182912</title>
<path fill="#f0f5f5" stroke="#14234b" d="M281,-666C281,-666 554,-666 554,-666 560,-666 566,-672 566,-678 566,-678 566,-816 566,-816 566,-822 560,-828 554,-828 554,-828 281,-828 281,-828 275,-828 269,-822 269,-816 269,-816 269,-678 269,-678 269,-672 275,-666 281,-666"/>
<text text-anchor="start" x="321.5" y="-809.8" font-family="Times,serif" font-weight="bold" font-size="19.00">mlp_simple/linear</text>
</g>
<g id="clust5" class="cluster">
<title>cluster_140226253502880</title>
<path fill="#f0f5f5" stroke="#14234b" d="M586,-594C586,-594 766,-594 766,-594 772,-594 778,-600 778,-606 778,-606 778,-735 778,-735 778,-741 772,-747 766,-747 766,-747 586,-747 586,-747 580,-747 574,-741 574,-735 574,-735 574,-606 574,-606 574,-600 580,-594 586,-594"/>
<text text-anchor="start" x="602.5" y="-728.8" font-family="Times,serif" font-weight="bold" font-size="19.00">xla_call (relu)</text>
</g>
<g id="clust7" class="cluster">
<title>cluster_140226253183072</title>
<path fill="#f0f5f5" stroke="#14234b" d="M261,-424C261,-424 534,-424 534,-424 540,-424 546,-430 546,-436 546,-436 546,-574 546,-574 546,-580 540,-586 534,-586 534,-586 261,-586 261,-586 255,-586 249,-580 249,-574 249,-574 249,-436 249,-436 249,-430 255,-424 261,-424"/>
<text text-anchor="start" x="290" y="-567.8" font-family="Times,serif" font-weight="bold" font-size="19.00">mlp_simple/linear_1</text>
</g>
<g id="clust8" class="cluster">
<title>cluster_140226253176560</title>
<path fill="#f0f5f5" stroke="#14234b" d="M613,-352C613,-352 793,-352 793,-352 799,-352 805,-358 805,-364 805,-364 805,-493 805,-493 805,-499 799,-505 793,-505 793,-505 613,-505 613,-505 607,-505 601,-499 601,-493 601,-493 601,-364 601,-364 601,-358 607,-352 613,-352"/>
<text text-anchor="start" x="629.5" y="-486.8" font-family="Times,serif" font-weight="bold" font-size="19.00">xla_call (relu)</text>
</g>
<g id="clust10" class="cluster">
<title>cluster_140226253501120</title>
<path fill="#f0f5f5" stroke="#14234b" d="M520,-191C520,-191 793,-191 793,-191 799,-191 805,-197 805,-203 805,-203 805,-332 805,-332 805,-338 799,-344 793,-344 793,-344 520,-344 520,-344 514,-344 508,-338 508,-332 508,-332 508,-203 508,-203 508,-197 514,-191 520,-191"/>
<text text-anchor="start" x="549" y="-325.8" font-family="Times,serif" font-weight="bold" font-size="19.00">mlp_simple/linear_2</text>
</g>
<g id="clust12" class="cluster">
<title>cluster_140226253176160</title>
<path fill="#f0f5f5" stroke="#14234b" d="M161,-16C161,-16 434,-16 434,-16 440,-16 446,-22 446,-28 446,-28 446,-171 446,-171 446,-177 440,-183 434,-183 434,-183 161,-183 161,-183 155,-183 149,-177 149,-171 149,-171 149,-28 149,-28 149,-22 155,-16 161,-16"/>
<text text-anchor="start" x="207" y="-164.8" font-family="Times,serif" font-weight="bold" font-size="19.00">mlp_simple/head</text>
</g>
<!-- 140226253585840 -->
<g id="node140226253585840" class="node">
<title>140226253585840</title>
<g id="a_node140226253585840"><a xlink:title=" ">
<polygon fill="#fff26e" stroke="#ffdb13" points="386.5,-791 277.5,-791 277.5,-755 386.5,-755 386.5,-791"/>
<text text-anchor="start" x="285.5" y="-776.8" font-family="Times,serif" font-weight="bold" font-size="14.00">dot_general</text>
<text text-anchor="start" x="290" y="-762.8" font-family="Times,serif" font-size="14.00">f32[10,100]</text>
</a>
</g>
</g>
<!-- 140226253289008 -->
<g id="node140226253289008" class="node">
<title>140226253289008</title>
<g id="a_node140226253289008"><a xlink:title=" ">
<polygon fill="#fff26e" stroke="#ffdb13" points="531,-710 431,-710 431,-674 531,-674 531,-710"/>
<text text-anchor="start" x="466.5" y="-695.8" font-family="Times,serif" font-weight="bold" font-size="14.00">add</text>
<text text-anchor="start" x="439" y="-681.8" font-family="Times,serif" font-size="14.00">f32[10,100]</text>
</a>
</g>
</g>
<!-- 140226253585840&#45;&gt;140226253289008 -->
<g id="edge4" class="edge">
<title>140226253585840&#45;&gt;140226253289008</title>
<path fill="none" stroke="black" d="M364.33,-754.86C386.39,-743.16 415.82,-727.56 439.59,-714.95"/>
<polygon fill="black" stroke="black" points="441.54,-717.88 448.73,-710.11 438.26,-711.7 441.54,-717.88"/>
</g>
<!-- 140226315516208 -->
<g id="node140226315516208" class="node">
<title>140226315516208</title>
<g id="a_node140226315516208"><a xlink:title=" ">
<polygon fill="#fff26e" stroke="#ffdb13" points="557.5,-791 404.5,-791 404.5,-755 557.5,-755 557.5,-791"/>
<text text-anchor="start" x="412.5" y="-776.8" font-family="Times,serif" font-weight="bold" font-size="14.00">broadcast_in_dim</text>
<text text-anchor="start" x="439" y="-762.8" font-family="Times,serif" font-size="14.00">f32[10,100]</text>
</a>
</g>
</g>
<!-- 140226315516208&#45;&gt;140226253289008 -->
<g id="edge5" class="edge">
<title>140226315516208&#45;&gt;140226253289008</title>
<path fill="none" stroke="black" d="M481,-754.86C481,-744.71 481,-731.63 481,-720.12"/>
<polygon fill="black" stroke="black" points="484.5,-720.11 481,-710.11 477.5,-720.11 484.5,-720.11"/>
</g>
<!-- 140226253287472 -->
<g id="node140226253287472" class="node">
<title>140226253287472</title>
<g id="a_node140226253287472"><a xlink:title=" ">
<polygon fill="#fff26e" stroke="#ffdb13" points="684,-638 584,-638 584,-602 684,-602 684,-638"/>
<text text-anchor="start" x="617.5" y="-623.8" font-family="Times,serif" font-weight="bold" font-size="14.00">max</text>
<text text-anchor="start" x="592" y="-609.8" font-family="Times,serif" font-size="14.00">f32[10,100]</text>
</a>
</g>
</g>
<!-- 140226253289008&#45;&gt;140226253287472 -->
<g id="edge7" class="edge">
<title>140226253289008&#45;&gt;140226253287472</title>
<path fill="none" stroke="black" d="M518.43,-673.88C539.25,-664.35 565.35,-652.41 587.48,-642.28"/>
<polygon fill="black" stroke="black" points="589.06,-645.41 596.69,-638.07 586.14,-639.05 589.06,-645.41"/>
</g>
<!-- 1402263155154400 -->
<g id="node1402263155154400" class="node">
<title>1402263155154400</title>
<polygon fill="#ffdeaf" stroke="#ff8a4f" points="373,-872 291,-872 291,-836 373,-836 373,-872"/>
<text text-anchor="start" x="303" y="-857.8" font-family="Times,serif" font-weight="bold" font-size="14.00">args[2]</text>
<text text-anchor="start" x="299" y="-843.8" font-family="Times,serif" font-size="14.00">f32[10,1]</text>
</g>
<!-- 1402263155154400&#45;&gt;140226253585840 -->
<g id="edge1" class="edge">
<title>1402263155154400&#45;&gt;140226253585840</title>
<path fill="none" stroke="black" d="M332,-835.86C332,-825.71 332,-812.63 332,-801.12"/>
<polygon fill="black" stroke="black" points="335.5,-801.11 332,-791.11 328.5,-801.11 335.5,-801.11"/>
</g>
<!-- 1402263155165920 -->
<g id="node1402263155165920" class="node">
<title>1402263155165920</title>
<polygon fill="#ffdeaf" stroke="#ff8a4f" points="273,-872 31,-872 31,-836 273,-836 273,-872"/>
<text text-anchor="start" x="39" y="-857.8" font-family="Times,serif" font-weight="bold" font-size="14.00">args[0]: mlp_simple/linear/w</text>
<text text-anchor="start" x="114.5" y="-843.8" font-family="Times,serif" font-size="14.00">f32[1,100]</text>
</g>
<!-- 1402263155165920&#45;&gt;140226253585840 -->
<g id="edge2" class="edge">
<title>1402263155165920&#45;&gt;140226253585840</title>
<path fill="none" stroke="black" d="M191.06,-835.86C218.18,-823.95 254.51,-808.01 283.5,-795.29"/>
<polygon fill="black" stroke="black" points="285.27,-798.33 293.02,-791.11 282.46,-791.92 285.27,-798.33"/>
</g>
<!-- 1402262535850720 -->
<g id="node1402262535850720" class="node">
<title>1402262535850720</title>
<polygon fill="#ffdeaf" stroke="#ff8a4f" points="631,-872 391,-872 391,-836 631,-836 631,-872"/>
<text text-anchor="start" x="399" y="-857.8" font-family="Times,serif" font-weight="bold" font-size="14.00">args[0]: mlp_simple/linear/b</text>
<text text-anchor="start" x="480.5" y="-843.8" font-family="Times,serif" font-size="14.00">f32[100]</text>
</g>
<!-- 1402262535850720&#45;&gt;140226315516208 -->
<g id="edge3" class="edge">
<title>1402262535850720&#45;&gt;140226315516208</title>
<path fill="none" stroke="black" d="M504.49,-835.86C500.6,-825.61 495.57,-812.37 491.16,-800.76"/>
<polygon fill="black" stroke="black" points="494.32,-799.21 487.5,-791.11 487.78,-801.7 494.32,-799.21"/>
</g>
<!-- 140226315516976 -->
<g id="node140226315516976" class="node">
<title>140226315516976</title>
<g id="a_node140226315516976"><a xlink:title=" ">
<polygon fill="#fff26e" stroke="#ffdb13" points="770,-710 582,-710 582,-674 770,-674 770,-710"/>
<text text-anchor="start" x="590" y="-695.8" font-family="Times,serif" font-weight="bold" font-size="14.00">convert_element_type</text>
<text text-anchor="start" x="659" y="-681.8" font-family="Times,serif" font-size="14.00">f32[]</text>
</a>
</g>
</g>
<!-- 140226315516976&#45;&gt;140226253287472 -->
<g id="edge8" class="edge">
<title>140226315516976&#45;&gt;140226253287472</title>
<path fill="none" stroke="black" d="M665.62,-673.7C660.74,-665.56 654.81,-655.69 649.42,-646.7"/>
<polygon fill="black" stroke="black" points="652.41,-644.88 644.26,-638.1 646.41,-648.48 652.41,-644.88"/>
</g>
<!-- 140226253289392 -->
<g id="node140226253289392" class="node">
<title>140226253289392</title>
<g id="a_node140226253289392"><a xlink:title=" ">
<polygon fill="#fff26e" stroke="#ffdb13" points="537.5,-549 428.5,-549 428.5,-513 537.5,-513 537.5,-549"/>
<text text-anchor="start" x="436.5" y="-534.8" font-family="Times,serif" font-weight="bold" font-size="14.00">dot_general</text>
<text text-anchor="start" x="441" y="-520.8" font-family="Times,serif" font-size="14.00">f32[10,100]</text>
</a>
</g>
</g>
<!-- 140226253287472&#45;&gt;140226253289392 -->
<g id="edge9" class="edge">
<title>140226253287472&#45;&gt;140226253289392</title>
<path fill="none" stroke="black" d="M600.19,-601.94C593.6,-599.01 586.67,-596.21 580,-594 563.62,-588.56 557.35,-593.88 542,-586 527.89,-578.75 514.62,-567.22 504.25,-556.66"/>
<polygon fill="black" stroke="black" points="506.65,-554.11 497.24,-549.23 501.56,-558.91 506.65,-554.11"/>
</g>
<!-- 9788960 -->
<g id="node9" class="node">
<title>9788960</title>
<polygon fill="#e6d6ff" stroke="#a261ff" points="754,-791 700,-791 700,-755 754,-755 754,-791"/>
<text text-anchor="start" x="722" y="-770.3" font-family="Times,serif" font-weight="bold" font-size="14.00">0</text>
</g>
<!-- 9788960&#45;&gt;140226315516976 -->
<g id="edge6" class="edge">
<title>9788960&#45;&gt;140226315516976</title>
<path fill="none" stroke="black" d="M715.93,-754.86C709.12,-744.3 700.25,-730.56 692.6,-718.71"/>
<polygon fill="black" stroke="black" points="695.41,-716.61 687.04,-710.11 689.53,-720.41 695.41,-716.61"/>
</g>
<!-- 140226253289776 -->
<g id="node140226253289776" class="node">
<title>140226253289776</title>
<g id="a_node140226253289776"><a xlink:title=" ">
<polygon fill="#fff26e" stroke="#ffdb13" points="797,-468 609,-468 609,-432 797,-432 797,-468"/>
<text text-anchor="start" x="617" y="-453.8" font-family="Times,serif" font-weight="bold" font-size="14.00">convert_element_type</text>
<text text-anchor="start" x="686" y="-439.8" font-family="Times,serif" font-size="14.00">f32[]</text>
</a>
</g>
</g>
<!-- 9788960&#45;&gt;140226253289776 -->
<g id="edge14" class="edge">
<title>9788960&#45;&gt;140226253289776</title>
<path fill="none" stroke="black" d="M754.17,-766.35C764.72,-762.68 775.75,-756.7 782,-747 818.81,-689.83 798.98,-659.85 782,-594 770.5,-549.39 741.79,-503.82 722.34,-476.47"/>
<polygon fill="black" stroke="black" points="725.09,-474.3 716.38,-468.26 719.42,-478.41 725.09,-474.3"/>
</g>
<!-- 140226253290160 -->
<g id="node140226253290160" class="node">
<title>140226253290160</title>
<g id="a_node140226253290160"><a xlink:title=" ">
<polygon fill="#fff26e" stroke="#ffdb13" points="533,-468 433,-468 433,-432 533,-432 533,-468"/>
<text text-anchor="start" x="468.5" y="-453.8" font-family="Times,serif" font-weight="bold" font-size="14.00">add</text>
<text text-anchor="start" x="441" y="-439.8" font-family="Times,serif" font-size="14.00">f32[10,100]</text>
</a>
</g>
</g>
<!-- 140226253289392&#45;&gt;140226253290160 -->
<g id="edge12" class="edge">
<title>140226253289392&#45;&gt;140226253290160</title>
<path fill="none" stroke="black" d="M483,-512.86C483,-502.71 483,-489.63 483,-478.12"/>
<polygon fill="black" stroke="black" points="486.5,-478.11 483,-468.11 479.5,-478.11 486.5,-478.11"/>
</g>
<!-- 140226253288624 -->
<g id="node140226253288624" class="node">
<title>140226253288624</title>
<g id="a_node140226253288624"><a xlink:title=" ">
<polygon fill="#fff26e" stroke="#ffdb13" points="410.5,-549 257.5,-549 257.5,-513 410.5,-513 410.5,-549"/>
<text text-anchor="start" x="265.5" y="-534.8" font-family="Times,serif" font-weight="bold" font-size="14.00">broadcast_in_dim</text>
<text text-anchor="start" x="292" y="-520.8" font-family="Times,serif" font-size="14.00">f32[10,100]</text>
</a>
</g>
</g>
<!-- 140226253288624&#45;&gt;140226253290160 -->
<g id="edge13" class="edge">
<title>140226253288624&#45;&gt;140226253290160</title>
<path fill="none" stroke="black" d="M366.33,-512.86C388.39,-501.16 417.82,-485.56 441.59,-472.95"/>
<polygon fill="black" stroke="black" points="443.54,-475.88 450.73,-468.11 440.26,-469.7 443.54,-475.88"/>
</g>
<!-- 140226253290928 -->
<g id="node140226253290928" class="node">
<title>140226253290928</title>
<g id="a_node140226253290928"><a xlink:title=" ">
<polygon fill="#fff26e" stroke="#ffdb13" points="753,-396 653,-396 653,-360 753,-360 753,-396"/>
<text text-anchor="start" x="686.5" y="-381.8" font-family="Times,serif" font-weight="bold" font-size="14.00">max</text>
<text text-anchor="start" x="661" y="-367.8" font-family="Times,serif" font-size="14.00">f32[10,100]</text>
</a>
</g>
</g>
<!-- 140226253290160&#45;&gt;140226253290928 -->
<g id="edge15" class="edge">
<title>140226253290160&#45;&gt;140226253290928</title>
<path fill="none" stroke="black" d="M533.2,-433.03C565.75,-422.67 608.33,-409.12 642.71,-398.18"/>
<polygon fill="black" stroke="black" points="644.17,-401.39 652.64,-395.02 642.05,-394.72 644.17,-401.39"/>
</g>
<!-- 1402263206824160 -->
<g id="node1402263206824160" class="node">
<title>1402263206824160</title>
<polygon fill="#ffdeaf" stroke="#ff8a4f" points="565.5,-638 306.5,-638 306.5,-602 565.5,-602 565.5,-638"/>
<text text-anchor="start" x="314.5" y="-623.8" font-family="Times,serif" font-weight="bold" font-size="14.00">args[0]: mlp_simple/linear_1/w</text>
<text text-anchor="start" x="389.5" y="-609.8" font-family="Times,serif" font-size="14.00">f32[100,100]</text>
</g>
<!-- 1402263206824160&#45;&gt;140226253289392 -->
<g id="edge10" class="edge">
<title>1402263206824160&#45;&gt;140226253289392</title>
<path fill="none" stroke="black" d="M445.29,-601.81C452.04,-589.3 461.32,-572.14 468.98,-557.96"/>
<polygon fill="black" stroke="black" points="472.06,-559.61 473.73,-549.15 465.9,-556.29 472.06,-559.61"/>
</g>
<!-- 1402262535854560 -->
<g id="node1402262535854560" class="node">
<title>1402262535854560</title>
<polygon fill="#ffdeaf" stroke="#ff8a4f" points="288.5,-638 31.5,-638 31.5,-602 288.5,-602 288.5,-638"/>
<text text-anchor="start" x="39.5" y="-623.8" font-family="Times,serif" font-weight="bold" font-size="14.00">args[0]: mlp_simple/linear_1/b</text>
<text text-anchor="start" x="129.5" y="-609.8" font-family="Times,serif" font-size="14.00">f32[100]</text>
</g>
<!-- 1402262535854560&#45;&gt;140226253288624 -->
<g id="edge11" class="edge">
<title>1402262535854560&#45;&gt;140226253288624</title>
<path fill="none" stroke="black" d="M194.38,-601.81C221.99,-588 260.94,-568.53 290.68,-553.66"/>
<polygon fill="black" stroke="black" points="292.61,-556.61 299.99,-549 289.48,-550.35 292.61,-556.61"/>
</g>
<!-- 140226253289776&#45;&gt;140226253290928 -->
<g id="edge16" class="edge">
<title>140226253289776&#45;&gt;140226253290928</title>
<path fill="none" stroke="black" d="M703,-431.7C703,-423.98 703,-414.71 703,-406.11"/>
<polygon fill="black" stroke="black" points="706.5,-406.1 703,-396.1 699.5,-406.1 706.5,-406.1"/>
</g>
<!-- 140226253312048 -->
<g id="node140226253312048" class="node">
<title>140226253312048</title>
<g id="a_node140226253312048"><a xlink:title=" ">
<polygon fill="#fff26e" stroke="#ffdb13" points="796.5,-307 687.5,-307 687.5,-271 796.5,-271 796.5,-307"/>
<text text-anchor="start" x="695.5" y="-292.8" font-family="Times,serif" font-weight="bold" font-size="14.00">dot_general</text>
<text text-anchor="start" x="700" y="-278.8" font-family="Times,serif" font-size="14.00">f32[10,100]</text>
</a>
</g>
</g>
<!-- 140226253290928&#45;&gt;140226253312048 -->
<g id="edge17" class="edge">
<title>140226253290928&#45;&gt;140226253312048</title>
<path fill="none" stroke="black" d="M710.71,-359.81C716.26,-347.42 723.86,-330.46 730.18,-316.37"/>
<polygon fill="black" stroke="black" points="733.41,-317.71 734.31,-307.15 727.03,-314.85 733.41,-317.71"/>
</g>
<!-- 140226253312816 -->
<g id="node140226253312816" class="node">
<title>140226253312816</title>
<g id="a_node140226253312816"><a xlink:title=" ">
<polygon fill="#fff26e" stroke="#ffdb13" points="643,-235 543,-235 543,-199 643,-199 643,-235"/>
<text text-anchor="start" x="578.5" y="-220.8" font-family="Times,serif" font-weight="bold" font-size="14.00">add</text>
<text text-anchor="start" x="551" y="-206.8" font-family="Times,serif" font-size="14.00">f32[10,100]</text>
</a>
</g>
</g>
<!-- 140226253312048&#45;&gt;140226253312816 -->
<g id="edge20" class="edge">
<title>140226253312048&#45;&gt;140226253312816</title>
<path fill="none" stroke="black" d="M705.55,-270.88C685.36,-261.39 660.08,-249.51 638.59,-239.42"/>
<polygon fill="black" stroke="black" points="639.87,-236.15 629.33,-235.07 636.89,-242.49 639.87,-236.15"/>
</g>
<!-- 140226315517360 -->
<g id="node140226315517360" class="node">
<title>140226315517360</title>
<g id="a_node140226315517360"><a xlink:title=" ">
<polygon fill="#fff26e" stroke="#ffdb13" points="669.5,-307 516.5,-307 516.5,-271 669.5,-271 669.5,-307"/>
<text text-anchor="start" x="524.5" y="-292.8" font-family="Times,serif" font-weight="bold" font-size="14.00">broadcast_in_dim</text>
<text text-anchor="start" x="551" y="-278.8" font-family="Times,serif" font-size="14.00">f32[10,100]</text>
</a>
</g>
</g>
<!-- 140226315517360&#45;&gt;140226253312816 -->
<g id="edge21" class="edge">
<title>140226315517360&#45;&gt;140226253312816</title>
<path fill="none" stroke="black" d="M593,-270.7C593,-262.98 593,-253.71 593,-245.11"/>
<polygon fill="black" stroke="black" points="596.5,-245.1 593,-235.1 589.5,-245.1 596.5,-245.1"/>
</g>
<!-- 140226253313200 -->
<g id="node140226253313200" class="node">
<title>140226253313200</title>
<g id="a_node140226253313200"><a xlink:title=" ">
<polygon fill="#fff26e" stroke="#ffdb13" points="437.5,-146 328.5,-146 328.5,-110 437.5,-110 437.5,-146"/>
<text text-anchor="start" x="336.5" y="-131.8" font-family="Times,serif" font-weight="bold" font-size="14.00">dot_general</text>
<text text-anchor="start" x="350" y="-117.8" font-family="Times,serif" font-size="14.00">f32[10,1]</text>
</a>
</g>
</g>
<!-- 140226253312816&#45;&gt;140226253313200 -->
<g id="edge22" class="edge">
<title>140226253312816&#45;&gt;140226253313200</title>
<path fill="none" stroke="black" d="M556.81,-198.91C550.89,-196.21 544.79,-193.49 539,-191 505.54,-176.62 467.57,-161.5 437.47,-149.8"/>
<polygon fill="black" stroke="black" points="438.58,-146.47 427.99,-146.12 436.05,-153 438.58,-146.47"/>
</g>
<!-- 1402262535839200 -->
<g id="node1402262535839200" class="node">
<title>1402262535839200</title>
<polygon fill="#ffdeaf" stroke="#ff8a4f" points="592.5,-396 333.5,-396 333.5,-360 592.5,-360 592.5,-396"/>
<text text-anchor="start" x="341.5" y="-381.8" font-family="Times,serif" font-weight="bold" font-size="14.00">args[0]: mlp_simple/linear_2/w</text>
<text text-anchor="start" x="416.5" y="-367.8" font-family="Times,serif" font-size="14.00">f32[100,100]</text>
</g>
<!-- 1402262535839200&#45;&gt;140226253312048 -->
<g id="edge18" class="edge">
<title>1402262535839200&#45;&gt;140226253312048</title>
<path fill="none" stroke="black" d="M548.24,-359.95C564.39,-357.04 581.18,-354.24 597,-352 633.25,-346.86 645.32,-358.36 679,-344 694.61,-337.35 709.2,-325.38 720.39,-314.4"/>
<polygon fill="black" stroke="black" points="723.1,-316.64 727.58,-307.03 718.09,-311.75 723.1,-316.64"/>
</g>
<!-- 1402262532882400 -->
<g id="node1402262532882400" class="node">
<title>1402262532882400</title>
<polygon fill="#ffdeaf" stroke="#ff8a4f" points="315.5,-396 58.5,-396 58.5,-360 315.5,-360 315.5,-396"/>
<text text-anchor="start" x="66.5" y="-381.8" font-family="Times,serif" font-weight="bold" font-size="14.00">args[0]: mlp_simple/linear_2/b</text>
<text text-anchor="start" x="156.5" y="-367.8" font-family="Times,serif" font-size="14.00">f32[100]</text>
</g>
<!-- 1402262532882400&#45;&gt;140226315517360 -->
<g id="edge19" class="edge">
<title>1402262532882400&#45;&gt;140226315517360</title>
<path fill="none" stroke="black" d="M266.73,-359.92C335.76,-345.12 435.41,-323.77 506.39,-308.56"/>
<polygon fill="black" stroke="black" points="507.16,-311.97 516.21,-306.46 505.7,-305.13 507.16,-311.97"/>
</g>
<!-- 140226253313968 -->
<g id="node140226253313968" class="node">
<title>140226253313968</title>
<g id="a_node140226253313968"><a xlink:title=" ">
<polygon fill="#aabfff" stroke="#0053d6" stroke-width="2" points="349,-74 267,-74 267,-24 349,-24 349,-74"/>
<text text-anchor="start" x="281" y="-59.8" font-family="Times,serif" font-weight="bold" font-size="14.00">output</text>
<text text-anchor="start" x="293.5" y="-45.8" font-family="Times,serif" font-weight="bold" font-size="14.00">add</text>
<text text-anchor="start" x="275" y="-31.8" font-family="Times,serif" font-size="14.00">f32[10,1]</text>
</a>
</g>
</g>
<!-- 140226253313200&#45;&gt;140226253313968 -->
<g id="edge25" class="edge">
<title>140226253313200&#45;&gt;140226253313968</title>
<path fill="none" stroke="black" d="M366.36,-109.91C358.17,-101.51 348.04,-91.11 338.53,-81.35"/>
<polygon fill="black" stroke="black" points="340.91,-78.77 331.43,-74.05 335.9,-83.66 340.91,-78.77"/>
</g>
<!-- 140226253312432 -->
<g id="node140226253312432" class="node">
<title>140226253312432</title>
<g id="a_node140226253312432"><a xlink:title=" ">
<polygon fill="#fff26e" stroke="#ffdb13" points="310.5,-146 157.5,-146 157.5,-110 310.5,-110 310.5,-146"/>
<text text-anchor="start" x="165.5" y="-131.8" font-family="Times,serif" font-weight="bold" font-size="14.00">broadcast_in_dim</text>
<text text-anchor="start" x="201" y="-117.8" font-family="Times,serif" font-size="14.00">f32[10,1]</text>
</a>
</g>
</g>
<!-- 140226253312432&#45;&gt;140226253313968 -->
<g id="edge26" class="edge">
<title>140226253312432&#45;&gt;140226253313968</title>
<path fill="none" stroke="black" d="M250.42,-109.91C258.5,-101.51 268.49,-91.11 277.87,-81.35"/>
<polygon fill="black" stroke="black" points="280.48,-83.69 284.89,-74.05 275.43,-78.83 280.48,-83.69"/>
</g>
<!-- 1402262535843040 -->
<g id="node1402262535843040" class="node">
<title>1402262535843040</title>
<polygon fill="#ffdeaf" stroke="#ff8a4f" points="500,-235 266,-235 266,-199 500,-199 500,-235"/>
<text text-anchor="start" x="274" y="-220.8" font-family="Times,serif" font-weight="bold" font-size="14.00">args[0]: mlp_simple/head/w</text>
<text text-anchor="start" x="345.5" y="-206.8" font-family="Times,serif" font-size="14.00">f32[100,1]</text>
</g>
<!-- 1402262535843040&#45;&gt;140226253313200 -->
<g id="edge23" class="edge">
<title>1402262535843040&#45;&gt;140226253313200</title>
<path fill="none" stroke="black" d="M383,-198.81C383,-186.66 383,-170.11 383,-156.18"/>
<polygon fill="black" stroke="black" points="386.5,-156.15 383,-146.15 379.5,-156.15 386.5,-156.15"/>
</g>
<!-- 1402262532878560 -->
<g id="node1402262532878560" class="node">
<title>1402262532878560</title>
<polygon fill="#ffdeaf" stroke="#ff8a4f" points="248,-235 16,-235 16,-199 248,-199 248,-235"/>
<text text-anchor="start" x="24" y="-220.8" font-family="Times,serif" font-weight="bold" font-size="14.00">args[0]: mlp_simple/head/b</text>
<text text-anchor="start" x="110.5" y="-206.8" font-family="Times,serif" font-size="14.00">f32[1]</text>
</g>
<!-- 1402262532878560&#45;&gt;140226253312432 -->
<g id="edge24" class="edge">
<title>1402262532878560&#45;&gt;140226253312432</title>
<path fill="none" stroke="black" d="M152.15,-198.81C167.52,-185.7 188.87,-167.49 205.91,-152.95"/>
<polygon fill="black" stroke="black" points="208.55,-155.31 213.89,-146.15 204.01,-149.98 208.55,-155.31"/>
</g>
</g>
</svg>
